<svg xmlns="http://www.w3.org/2000/svg" viewBox="0 0 425.2 119.55"><defs><style>.cls-1{fill:#232e58}</style></defs><g id="Ebene_2" data-name="Ebene 2"><g id="Ebene_1-2" data-name="Ebene 1"><path class="cls-1" fill="#232e58" d="M388.56 104.18v-1.24c-3.86-.36-4-.58-4.13-5.28L384 81.58c-.13-4.58.18-4.66 4.09-5v-1.27h-7.55l-10.28 22.21-10.13-22.21h-7.28v1.24c4 .4 4.26.58 3.86 6.35l-.62 9.24c-.35 4.62-.62 6.57-.84 8.13-.31 1.87-1.2 2.35-3.77 2.67v1.24h10.35v-1.24c-2.93-.31-4-.62-4.09-2.75 0-1.78 0-3.73.13-7.37l.67-12.66h.09l9.95 23.72h.89l10.84-24.34h.18l.13 18.12c0 4.71-.13 4.93-3.73 5.28v1.24zm-45 0v-1.24c-3.64-.27-4-.49-4-4.31V80.86c0-3.78.35-4 4-4.31v-1.24h-11.81v1.24c3.64.27 4 .53 4 4.31v17.77c0 3.77-.36 4-4 4.31v1.24zM322.64 97a13 13 0 01-2.18 4.17c-1 1.16-2.22 1.51-5.6 1.51-2.22 0-3.78 0-4.62-.58s-1.07-1.51-1.07-3.6v-8.4h4.22c3.86 0 4.17.27 4.75 3.46h1.29V85h-1.29c-.58 3-.8 3.33-4.8 3.33h-4.18V78.29c0-1.33.09-1.42 1.47-1.42H314c3.2 0 4.4.31 5 1.24a11.49 11.49 0 011.42 3.82l1.29-.22c-.13-2.26-.36-5.28-.36-6.4h-19.76v1.24c3.46.31 3.82.44 3.82 4.44v17.69c0 3.6-.36 4-4.4 4.26v1.24h21.41c.4-1.38 1.29-5.55 1.55-7zm-28.91-21.69h-11.59v1.24c3.46.31 3.82.53 3.82 4.22V88h-15.15v-7.2c0-3.69.36-3.91 3.73-4.22v-1.27H263v1.24c3.64.31 4 .49 4 4.22v17.95c0 3.73-.35 4-3.91 4.22v1.24h11.68v-1.24c-3.64-.27-4-.53-4-4.22v-8.88H286v8.88c0 3.73-.4 4-4.18 4.22v1.24h11.9v-1.24c-3.6-.27-4-.49-4-4.22V80.78c0-3.69.35-3.91 4-4.22zm-37.53 0h-10.49v1.24c3.07.18 4.13.76 4.35 2.75a65.93 65.93 0 01.31 7.37v10.94h-.13l-18.52-22.3h-6.57v1.24c2.09.18 3.06.53 4 1.64s.89 1.24.89 4.49v9.77c0 4.09-.13 6.22-.27 7.59-.22 2.18-1.33 2.75-3.91 2.89v1.24h10.53v-1.24c-3-.18-4-.71-4.26-3a74.37 74.37 0 01-.27-7.51V81.31h.09l18.92 23.27h1.38v-17.9a61.66 61.66 0 01.27-7.46c.18-2 1.24-2.53 3.73-2.67zm-37.09 0h-10.48v1.24c3.07.18 4.13.76 4.35 2.75a65.93 65.93 0 01.31 7.37v10.94h-.13l-18.52-22.3h-6.57v1.24c2.09.18 3.07.53 4 1.64s.89 1.24.89 4.49v9.77c0 4.09-.13 6.22-.27 7.59-.22 2.18-1.33 2.75-3.91 2.89v1.24h10.53v-1.24c-3-.18-4-.71-4.26-3a74.8 74.8 0 01-.27-7.51V81.31h.09l18.92 23.27h1.38v-17.9a62 62 0 01.27-7.46c.18-2 1.24-2.53 3.73-2.67zm-46.19 16.44h-8.17c1.33-3.64 2.75-7.51 4.17-11.33h.08zm11.33 12.44v-1.24c-2.89-.27-3.46-.67-4.89-4.49-2.84-7.73-5.82-16.17-8.57-23.81l-1.38.4-9.2 23.32c-1.55 3.91-2.18 4.18-5 4.58v1.24h9.64v-1.24c-3.33-.31-3.73-.76-2.75-3.55.58-1.86 1.24-3.73 2-5.73h9.46c1 2.71 1.87 5.11 2.44 6.84s.18 2.09-2.62 2.44v1.24zm-32.56 0v-1.24c-3.86-.36-4-.58-4.13-5.28l-.44-16.08c-.13-4.58.18-4.66 4.09-5v-1.28h-7.55l-10.27 22.21-10.13-22.21H116v1.24c4 .4 4.26.58 3.86 6.35l-.62 9.24c-.36 4.62-.62 6.57-.84 8.13-.31 1.87-1.2 2.35-3.78 2.67v1.24h10.35v-1.24c-2.93-.31-4-.62-4.09-2.75 0-1.78 0-3.73.13-7.37l.67-12.66h.09l10 23.72h.89l10.84-24.34h.18l.13 18.12c0 4.71-.13 4.93-3.73 5.28v1.24zM425.2 43.66c-.22-2.58-.44-5.82-.44-7.86h-.93a2.36 2.36 0 01-2.27 1.11H404c-1.24 0-1.82-.09-2.44-1.11h-.89c-.09 2.44-.31 5.33-.53 8h1.29a14 14 0 011.42-4c.58-1 1.47-1.38 5.15-1.38h2.75v21.89c0 3.51-.35 4-4.4 4.22v1.24h12.75v-1.24c-4.22-.27-4.58-.71-4.58-4.22V38.46h3.15c3.33 0 4.09.31 4.8 1.38a10.75 10.75 0 011.42 4zm-45.84-13.1a2.15 2.15 0 000 4.31 2.16 2.16 0 000-4.31m8.44 0a2.18 2.18 0 000 4.35 2.18 2.18 0 000-4.35m-1.33 22.83h-8.17c1.33-3.64 2.75-7.51 4.18-11.33h.09zm11.33 12.44v-1.3c-2.89-.27-3.46-.67-4.89-4.49-2.84-7.73-5.82-16.17-8.57-23.81l-1.38.4-9.2 23.37c-1.55 3.91-2.18 4.17-5 4.58v1.24h9.64v-1.29c-3.33-.31-3.73-.76-2.75-3.55a96.57 96.57 0 012-5.73h9.46c1 2.71 1.86 5.11 2.44 6.84s.18 2.09-2.62 2.44v1.24zm-30.66-22.17c-.22-2.58-.44-5.82-.44-7.86h-.93a2.36 2.36 0 01-2.27 1.11H346c-1.24 0-1.82-.09-2.44-1.11h-.89c-.09 2.44-.31 5.33-.53 8h1.29a14 14 0 011.42-4c.58-1 1.47-1.38 5.15-1.38h2.75v21.89c0 3.51-.35 4-4.4 4.22v1.24h12.75v-1.24c-4.22-.27-4.57-.71-4.57-4.22V38.46h3.15c3.33 0 4.09.31 4.8 1.38a10.74 10.74 0 011.42 4zm-31.66 22.12v-1.25c-3.64-.27-4-.49-4-4.31V42.46c0-3.78.35-4 4-4.31v-1.24h-11.77v1.24c3.64.27 4 .53 4 4.31v17.76c0 3.78-.36 4-4 4.31v1.24zm-21.55-22.39c-.35-2.8-.58-4.53-.76-6.13a18.43 18.43 0 00-5.6-1c-5.73 0-9.15 3.64-9.15 7.91 0 5 4.49 7.24 7.33 8.75 3.33 1.78 5.77 3.33 5.77 6.62a5 5 0 01-5.33 5.33c-4.58 0-6.57-4.49-7.28-7.19l-1.29.31a54.65 54.65 0 001.2 6.88 15.21 15.21 0 002.18.93 15.47 15.47 0 004.35.67c5.91 0 9.86-3.73 9.86-8.4 0-5-4.22-7.06-7.68-8.84s-5.64-3.33-5.64-6.57a4.66 4.66 0 014.93-4.89c3.86 0 5 3.07 5.82 5.91zM274 51.7V40.77c0-1.2.18-1.73.49-2a4.35 4.35 0 012.4-.44c3.38 0 6.53 1.78 6.53 6.57a6.37 6.37 0 01-2.42 5.55c-1.11.89-2.58 1.24-4.84 1.24zM292.71 65a6.31 6.31 0 01-3.2-2.09 38.59 38.59 0 01-3.6-4.62c-1.33-2-3.2-5-4-6.44 3.29-1.42 5.64-3.78 5.64-7.6a6.65 6.65 0 00-2.93-5.82c-1.69-1.11-3.87-1.51-7.11-1.51h-11v1.24c3.46.31 3.82.44 3.82 4.22v17.84c0 3.78-.4 4-4 4.31v1.24H278v-1.24c-3.55-.27-4-.53-4-4.31v-7.06h1.42c2.31 0 3.07.53 3.82 1.78 1.33 2.18 2.93 4.93 4.49 7.11a8.1 8.1 0 007.2 4h1.55zm-34.51-6.4a12.94 12.94 0 01-2.2 4.16c-1 1.15-2.22 1.51-5.6 1.51-2.22 0-3.77 0-4.62-.58s-1.07-1.51-1.07-3.6V51.7H249c3.86 0 4.18.27 4.75 3.46H255v-8.53h-1.29c-.58 3-.8 3.33-4.8 3.33h-4.18V39.88c0-1.33.09-1.42 1.46-1.42h3.38c3.2 0 4.4.31 5 1.24a11.46 11.46 0 011.43 3.82l1.29-.22c-.13-2.26-.36-5.29-.36-6.4h-19.79v1.24c3.47.31 3.82.44 3.82 4.44v17.69c0 3.6-.35 4-4.4 4.26v1.24H258c.4-1.38 1.29-5.55 1.55-7zm-24.61-21.69h-10v1.24c3.6.44 3.86.8 3 3.33-1.42 4.44-4.8 13.1-7 18.65h-.09c-3-7.64-6.22-16.21-7.37-19.37-.71-2-.53-2.26 2.62-2.62v-1.23h-10.88v1.29c2.62.22 3.33.58 4.62 3.91 2.58 6.44 6.22 16 9.2 24.12h1.38c3.33-9.15 8-20.43 9.24-23.32 1.69-4 2.27-4.4 5.29-4.75zm-34.16 28.87v-1.25c-3.64-.27-4-.49-4-4.31V42.46c0-3.78.36-4 4-4.31v-1.24h-11.77v1.24c3.64.27 4 .53 4 4.31v17.76c0 3.78-.36 4-4 4.31v1.24zm-18.61-28.87h-10.48v1.24c3.07.18 4.13.75 4.35 2.75a66 66 0 01.31 7.37V59.2h-.13l-18.52-22.3h-6.57v1.24c2.09.18 3.06.53 4 1.64s.89 1.24.89 4.49v9.77c0 4.09-.13 6.22-.27 7.59-.22 2.18-1.33 2.75-3.91 2.89v1.24H161v-1.23c-3-.18-4-.71-4.26-3a74.68 74.68 0 01-.27-7.51V42.9h.09l18.92 23.27h1.38V48.28a61.75 61.75 0 01.27-7.46c.18-2 1.24-2.53 3.73-2.67zm-35.58 0h-10.57v1.24c3.11.22 4 .75 4.31 2.49a56.67 56.67 0 01.31 7.33v3.38c0 7.33-2 12.66-8.39 12.66-5.51 0-8.35-4.09-8.35-11.24V42.64c0-4 .36-4.26 3.86-4.49v-1.24h-11.5v1.24c3.51.31 3.87.49 3.87 4.49v11.1c0 5.2 1.24 8.53 3.91 10.57a11.6 11.6 0 007.11 2.13 10.92 10.92 0 008-3.07c2.58-2.71 3.38-6.49 3.38-11.73V48a70.86 70.86 0 01.22-7.2c.22-1.82 1.24-2.44 3.91-2.62zm-70.53-8.27v-9.17h11v9.16zM57.24 8.55h-4.08V3.07a2.07 2.07 0 014.08 0zM24.69 28.64v-9.16h11v9.18zm62.57-2.79v-6.37H90v-4.39h-4.35v2.78H74.7V15.1h-4.39v4.4h2.79v9.15h-4.7v-2.76h-2.77V7.23h2.74V2.84H64v2.74h-5.43V2.87a3.4 3.4 0 00-6.73.06v2.65h-5.47V2.84H42v4.39h2.74v18.66H42v2.76h-4.7V19.5H40v-4.4h-4.35v2.76H24.71v-2.77h-4.4v4.39h2.78v6.37H20.3v4.39h23.25v-2.75h2.78V7.23h5.46v2.7h6.75V7.18H64v20.31h2.78v2.76h23.28v-4.4zm14.24 46.4l5.97-9.35-4.26-9.15-5.39 1.39.64-18.16h-1.27l-.7 19.81 6.02-1.55 3.52 7.56-5.13 8.03-5.26-1.08-5.22 16.82 5.03 1.73-2.79 11.56-11.5.44-1.72-3.07-14.21 5.8 1.58 4.24-11.64 7.72-11.77-7.71 1.66-4.31-14.24-5.91-1.73 3.17-11.34-.31-2.93-11.59 5.02-1.89-5.21-16.8-5.18 1.17-5.13-8.09 3.44-7.53 6.03 1.64-.7-19.85h-1.27l.64 18.18-5.4-1.48-4.18 9.14 5.97 9.43 4.92-1.11 4.51 14.54-4.96 1.86 3.44 13.62 13.08.36 1.55-2.86 12.04 5.01-1.58 4.1 13.32 8.74 13.18-8.74-1.5-4.03 12.03-4.92 1.55 2.77 13.23-.5 3.3-13.61-4.97-1.71 4.51-14.55 5 1.03z"/><path class="cls-1" fill="#232e58" d="M99.73 36.98l-.58 16.51 4.77-1.23 4.99 10.73-6.82 10.68-4.71-.97-3.81 12.27 4.9 1.68-3.8 15.67-14.97.57-1.38-2.46-9.85 4.02 1.42 3.83-14.71 9.75-14.88-9.76 1.5-3.9-9.84-4.09-1.38 2.53-14.82-.41-3.95-15.65 4.9-1.84-3.81-12.28-4.64 1.05-6.82-10.76 4.91-10.75 4.78 1.31-.59-16.5H9.28L9.8 51.8l-4.15-1.13L0 63.02l7.67 12.09 4.37-.98 3.1 10.01-4.84 1.82 4.47 17.68 16.55.46 1.21-2.21 7.64 3.17-1.42 3.71 16.43 10.78 16.25-10.77-1.34-3.62 7.67-3.14 1.21 2.17 16.71-.64 4.29-17.72-4.83-1.66 3.11-10 4.44.92 7.67-12-5.73-12.32-4.16 1.07.53-14.86h-1.27z"/><path class="cls-1" fill="#232e58" d="M20.7 50.15l.55 12.01h7.23V50.15H20.7zm8.92 12.01h12v-12h-12zm1.44-10.58h9.14v9.14h-9.15zm51.15-1.43v12.01h7.07l.06-1.44h-5.7v-9.14h6.06l.06-1.43h-7.55zM25.1 76.44l3.38 11.89V76.44H25.1zm17.66 0h12.01v12.01H42.76zm26.3 0h12.01v12.01H69.06zM29.62 88.45h12v-12h-12zm1.44-10.58h9.14V87h-9.15zm51.15-1.43v12.01h.01l1.42-5.14v-5.43h1.51l.4-1.44h-3.34zm-26.3 12.01h12v-12h-12zm1.44-10.58h9.14V87h-9.14zM29.62 63.3h12.01v12.01H29.62zm52.59 0v12.01h3.65l3.33-12.01h-6.98zm-60.85 0l.4 1.43h5.28v9.14h-2.68l.41 1.44h3.71V63.3h-7.12zM29.62 37h12.01v12.01H29.62zm52.59 0v12.01h7.59L90.27 37h-8.06zM42.76 50.15h12.01v12.01H42.76zm26.3 0h12.01v12.01H69.06zM55.91 62.16h12v-12h-12zm1.44-10.58h9.14v9.14h-9.14zM55.91 63.3h12.01v12.01H55.91zM42.76 75.31h12v-12h-12zm1.44-10.58h9.14v9.14H44.2zm24.86 10.58h12v-12h-12zm1.44-10.58h9.14v9.14H70.5zM55.91 37h12.01v12.01H55.91zM42.76 49h12V37h-12zm1.44-10.56h9.14v9.14H44.2zM69.06 49h12V37h-12zm1.44-10.56h9.14v9.14H70.5zM20.09 37l.07 1.44h6.88v9.13h-6.46l.06 1.44h7.84V37h-8.39zm9.53 52.59v.05l12.01 5.32v-5.37H29.62zm26.29 0v11.21l12.01-5.36v-5.85H55.91zm-13.14 0v5.87l1.43.64v-5.07h9.14v9.11l1.43.64V89.59h-12zm26.29 0v5.34l1.44-.64v-3.26h7.31l3.21-1.44H69.06z"/></g></g></svg>